<svg xmlns="http://www.w3.org/2000/svg" viewBox="0 0 64 64" fill="none">
  <rect width="64" height="64" fill="#12082A"/>
  
  <ellipse cx="32" cy="34" rx="20" ry="14" fill="#4020A0" opacity="0.5"/>
  <ellipse cx="36" cy="30" rx="12" ry="8" fill="#E060A0" opacity="0.35"/>
  <circle cx="20" cy="18" r="1" fill="#FFF"/><circle cx="44" cy="16" r="0.8" fill="#FFE8A0"/>
  <circle cx="50" cy="40" r="1" fill="#C8B8FF"/><circle cx="14" cy="44" r="0.7" fill="#FFF"/>
  <line x1="10" y1="42" x2="54" y2="42" stroke="rgba(150,120,255,0.4)" stroke-width="1.2" stroke-linecap="round"/>
  <line x1="10" y1="45" x2="54" y2="45" stroke="rgba(150,120,255,0.4)" stroke-width="1.2" stroke-linecap="round"/>
  <line x1="10" y1="48" x2="54" y2="48" stroke="rgba(150,120,255,0.4)" stroke-width="1.2" stroke-linecap="round"/>
  <line x1="10" y1="51" x2="54" y2="51" stroke="rgba(150,120,255,0.4)" stroke-width="1.2" stroke-linecap="round"/>
  <line x1="10" y1="54" x2="54" y2="54" stroke="rgba(150,120,255,0.4)" stroke-width="1.2" stroke-linecap="round"/>
  <path d="M46 10 L48 14 L52 14 L49 17 L50 21 L46 18 L42 21 L43 17 L40 14 L44 14 Z" fill="#FFD060" opacity="0.8"/>
</svg>