<svg xmlns="http://www.w3.org/2000/svg" viewBox="0 0 64 64" fill="none">
  <rect width="64" height="64" fill="#E8F5E4"/>
  
  <line x1="10" y1="40" x2="54" y2="40" stroke="rgba(52,112,56,0.55)" stroke-width="1.2" stroke-linecap="round"/>
  <line x1="10" y1="44" x2="54" y2="44" stroke="rgba(52,112,56,0.55)" stroke-width="1.2" stroke-linecap="round"/>
  <line x1="10" y1="48" x2="54" y2="48" stroke="rgba(52,112,56,0.55)" stroke-width="1.2" stroke-linecap="round"/>
  <line x1="10" y1="52" x2="54" y2="52" stroke="rgba(52,112,56,0.55)" stroke-width="1.2" stroke-linecap="round"/>
  <line x1="10" y1="56" x2="54" y2="56" stroke="rgba(52,112,56,0.55)" stroke-width="1.2" stroke-linecap="round"/>
  <path d="M14 54 Q14 40 14 28" stroke="#3A7840" stroke-width="3" stroke-linecap="round" fill="none"/>
  <path d="M14 38 Q18 36 20 38" stroke="#4A9850" stroke-width="1.5" fill="none"/>
  <path d="M14 46 Q10 44 8 46" stroke="#4A9850" stroke-width="1.5" fill="none"/>
  <path d="M28 54 Q28 36 28 18" stroke="#2E6834" stroke-width="3.5" stroke-linecap="round" fill="none"/>
  <path d="M28 30 Q32 28 34 30" stroke="#5AAA58" stroke-width="1.5" fill="none"/>
  <path d="M28 42 Q24 40 22 42" stroke="#5AAA58" stroke-width="1.5" fill="none"/>
  <ellipse cx="28" cy="16" rx="3" ry="5" fill="#6AB86A" opacity="0.7" transform="rotate(-15 28 16)"/>
</svg>