<svg xmlns="http://www.w3.org/2000/svg" viewBox="0 0 64 64" fill="none">
  <circle cx="32" cy="32" r="26" fill="#F0FAFF" stroke="#9AD4F0" stroke-width="2"/>
  <path d="M22 34 C22 28 26 24 32 24 C38 24 42 28 42 32 C42 36 38 40 32 40 C28 40 25 38 24 35 C26 37 29 38 32 38 C36 38 39 35 39 32 C39 29 36 26 32 26 C28 26 25 29 25 32 C25 33 25.5 33.8 26 34.5 C24.5 33.5 22 34 22 34 Z" fill="#5BA8D4" stroke="#3D8AB8" stroke-width="1.5"/>
  <text x="32" y="54" text-anchor="middle" font-size="8" font-weight="700" fill="#5C7A9A" font-family="sans-serif">100</text>
</svg>
