<!-- gear.svg -->
<svg xmlns="http://www.w3.org/2000/svg" width="200" height="200" viewBox="0 0 100 100" aria-hidden="true">
  <defs>
    <!-- 可通过 CSS 覆盖这两个变量来自定义配色 -->
    <style>
      :root {
      --gear-fill: #4b5563;    /* 齿轮主体颜色（默认：灰） */
      --gear-stroke: #111827;  /* 描边颜色 */
      --hole-fill: #ffffff;    /* 中心孔颜色 */
      }
    </style>
  </defs>

  <!-- 外层描边圈（装饰） -->
  <circle cx="50" cy="50" r="38" fill="none" stroke="var(--gear-stroke)" stroke-width="1.2" opacity="0.15"/>

  <!-- 齿（12 片矩形，围绕 50,50 旋转） -->
  <g fill="var(--gear-fill)">
    <rect x="47" y="5" width="6" height="12" rx="1" transform="rotate(0 50 50)"/>
    <rect x="47" y="5" width="6" height="12" rx="1" transform="rotate(30 50 50)"/>
    <rect x="47" y="5" width="6" height="12" rx="1" transform="rotate(60 50 50)"/>
    <rect x="47" y="5" width="6" height="12" rx="1" transform="rotate(90 50 50)"/>
    <rect x="47" y="5" width="6" height="12" rx="1" transform="rotate(120 50 50)"/>
    <rect x="47" y="5" width="6" height="12" rx="1" transform="rotate(150 50 50)"/>
    <rect x="47" y="5" width="6" height="12" rx="1" transform="rotate(180 50 50)"/>
    <rect x="47" y="5" width="6" height="12" rx="1" transform="rotate(210 50 50)"/>
    <rect x="47" y="5" width="6" height="12" rx="1" transform="rotate(240 50 50)"/>
    <rect x="47" y="5" width="6" height="12" rx="1" transform="rotate(270 50 50)"/>
    <rect x="47" y="5" width="6" height="12" rx="1" transform="rotate(300 50 50)"/>
    <rect x="47" y="5" width="6" height="12" rx="1" transform="rotate(330 50 50)"/>
  </g>

  <!-- 齿轮主体圆环（填充） -->
  <circle cx="50" cy="50" r="30" fill="var(--gear-fill)" stroke="var(--gear-stroke)" stroke-width="1"/>

  <!-- 中心孔（可以看作轴孔） -->
  <circle cx="50" cy="50" r="10" fill="var(--hole-fill)" stroke="var(--gear-stroke)" stroke-width="1"/>

  <!-- 中心小点，增加层次感 -->
  <circle cx="50" cy="50" r="3" fill="var(--gear-stroke)"/>
</svg>
